<?xml version="1.0" encoding="UTF-8"?>
<svg id="Layer_2" xmlns="http://www.w3.org/2000/svg" width="202.83" height="237.53" viewBox="0 0 202.83 237.53">
  <defs>
    <style>
      .cls-1 {
        fill: #00b745;
      }
    </style>
  </defs>
  <g id="Layer_1-2" data-name="Layer_1">
    <g>
      <g>
        <g>
          <path class="cls-1" d="M101.42,237.53c-3.04,0-5.5-2.46-5.5-5.5v-86.49c0-3.04,2.46-5.5,5.5-5.5s5.5,2.46,5.5,5.5v86.49c0,3.04-2.46,5.5-5.5,5.5Z"/>
          <path class="cls-1" d="M62.99,170.32c-3.67,0-7.34-.94-10.62-2.81l-40.14-22.66c-5.6-3.17-9.62-8.32-11.34-14.51-1.72-6.19-.92-12.68,2.24-18.27,2.14-3.8,5.29-6.95,9.1-9.1l9.72-5.48c2.65-1.49,6-.55,7.49,2.09,1.49,2.65.55,6-2.09,7.49l-9.72,5.48c-2.06,1.16-3.76,2.86-4.92,4.92-1.72,3.05-2.16,6.57-1.22,9.92.93,3.36,3.12,6.16,6.16,7.87l40.16,22.67c3.21,1.83,7.15,1.83,10.33.01l107.38-60.48c2.65-1.49,6-.55,7.49,2.09s.55,6-2.09,7.49l-107.35,60.46c-3.25,1.86-6.91,2.79-10.57,2.79Z"/>
          <path class="cls-1" d="M101.43,237.5c-3.81,0-7.62-.9-11.1-2.71l-57.64-29.59c-8.44-4.39-13.67-13-13.66-22.49v-37.19c0-3.04,2.46-5.5,5.5-5.5s5.5,2.46,5.5,5.5v37.19c0,5.37,2.95,10.23,7.7,12.71l57.64,29.59c3.79,1.97,8.29,1.97,12.06.01l57.69-29.61c4.73-2.46,7.68-7.33,7.68-12.69v-37.2c0-3.04,2.46-5.5,5.5-5.5s5.5,2.46,5.5,5.5v37.19c0,9.48-5.21,18.09-13.63,22.47l-57.69,29.61c-3.46,1.8-7.26,2.7-11.06,2.7Z"/>
          <path class="cls-1" d="M139.83,170.32c-3.66,0-7.32-.94-10.59-2.82L21.96,107.08c-1.72-.97-2.79-2.79-2.8-4.77,0-1.98,1.05-3.81,2.77-4.79l28.35-16.22c2.64-1.51,6-.6,7.5,2.04,1.51,2.64.59,6-2.04,7.51l-19.94,11.41,98.88,55.69c3.18,1.83,7.09,1.83,10.23.03l40.32-22.7c6.25-3.54,8.46-11.52,4.92-17.78-1.17-2.06-2.87-3.77-4.93-4.93l-9.65-5.45-22.57-11.94c-2.69-1.42-3.71-4.75-2.29-7.43,1.42-2.68,4.75-3.71,7.43-2.29l22.64,11.98s.09.05.13.07l9.71,5.49c3.79,2.14,6.94,5.29,9.1,9.09,6.52,11.53,2.44,26.23-9.09,32.77l-40.29,22.68c-3.23,1.86-6.87,2.79-10.52,2.79Z"/>
        </g>
        <path class="cls-1" d="M95.73,114.77c-1.88,0-3.77-.65-5.29-1.97-2.35-2.03-3.33-5.28-2.5-8.27.02-.07.04-.14.06-.21l9.91-31.06h-35.91c-5.88,0-10.67-4.77-10.69-10.65,0-2.46.84-4.86,2.39-6.77.1-.13.21-.25.33-.37L105.29,2.64c2.94-3.24,7.96-3.55,11.29-.67,2.34,2.03,3.33,5.28,2.5,8.27-.02.07-.04.14-.06.21l-9.91,31.06h35.93c5.86,0,10.65,4.77,10.67,10.65,0,2.45-.84,4.86-2.39,6.77-.1.13-.21.25-.33.37l-51.28,52.83c-1.59,1.75-3.79,2.64-5.99,2.64ZM93.54,104.77s0,0,0,0c0,0,0,0,0,0ZM108.4,76.54l-6.13,19.23,41.99-43.26h-35.6c-1.26,0-2.52-.23-3.72-.68-2.67-1-4.8-2.98-5.98-5.58-1.16-2.55-1.28-5.39-.34-8.03l6.13-19.23-41.99,43.26h35.56c1.25,0,2.54.22,3.76.68,5.47,2.05,8.28,8.12,6.33,13.6ZM98.34,73.26h0,0ZM145.02,52.51h0,0ZM108.68,41.51h0,0,0ZM113.47,9.99s0,0,0,0c0,0,0,0,0,0Z"/>
      </g>
      <g>
        <g>
          <path class="cls-1" d="M101.42,237.53c-3.04,0-5.5-2.46-5.5-5.5v-86.49c0-3.04,2.46-5.5,5.5-5.5s5.5,2.46,5.5,5.5v86.49c0,3.04-2.46,5.5-5.5,5.5Z"/>
          <path class="cls-1" d="M62.99,170.32c-3.67,0-7.34-.94-10.62-2.81l-40.14-22.66c-5.6-3.17-9.62-8.32-11.34-14.51-1.72-6.19-.92-12.68,2.24-18.27,2.14-3.8,5.29-6.95,9.1-9.1l9.72-5.48c2.65-1.49,6-.55,7.49,2.09,1.49,2.65.55,6-2.09,7.49l-9.72,5.48c-2.06,1.16-3.76,2.86-4.92,4.92-1.72,3.05-2.16,6.57-1.22,9.92.93,3.36,3.12,6.16,6.16,7.87l40.16,22.67c3.21,1.83,7.15,1.83,10.33.01l107.38-60.48c2.65-1.49,6-.55,7.49,2.09s.55,6-2.09,7.49l-107.35,60.46c-3.25,1.86-6.91,2.79-10.57,2.79Z"/>
          <path class="cls-1" d="M101.43,237.5c-3.81,0-7.62-.9-11.1-2.71l-57.64-29.59c-8.44-4.39-13.67-13-13.66-22.49v-37.19c0-3.04,2.46-5.5,5.5-5.5s5.5,2.46,5.5,5.5v37.19c0,5.37,2.95,10.23,7.7,12.71l57.64,29.59c3.79,1.97,8.29,1.97,12.06.01l57.69-29.61c4.73-2.46,7.68-7.33,7.68-12.69v-37.2c0-3.04,2.46-5.5,5.5-5.5s5.5,2.46,5.5,5.5v37.19c0,9.48-5.21,18.09-13.63,22.47l-57.69,29.61c-3.46,1.8-7.26,2.7-11.06,2.7Z"/>
          <path class="cls-1" d="M139.83,170.32c-3.66,0-7.32-.94-10.59-2.82L21.96,107.08c-1.72-.97-2.79-2.79-2.8-4.77,0-1.98,1.05-3.81,2.77-4.79l28.35-16.22c2.64-1.51,6-.6,7.5,2.04,1.51,2.64.59,6-2.04,7.51l-19.94,11.41,98.88,55.69c3.18,1.83,7.09,1.83,10.23.03l40.32-22.7c6.25-3.54,8.46-11.52,4.92-17.78-1.17-2.06-2.87-3.77-4.93-4.93l-9.65-5.45-22.57-11.94c-2.69-1.42-3.71-4.75-2.29-7.43,1.42-2.68,4.75-3.71,7.43-2.29l22.64,11.98s.09.05.13.07l9.71,5.49c3.79,2.14,6.94,5.29,9.1,9.09,6.52,11.53,2.44,26.23-9.09,32.77l-40.29,22.68c-3.23,1.86-6.87,2.79-10.52,2.79Z"/>
        </g>
        <path class="cls-1" d="M95.73,114.77c-1.88,0-3.77-.65-5.29-1.97-2.35-2.03-3.33-5.28-2.5-8.27.02-.07.04-.14.06-.21l9.91-31.06h-35.91c-5.88,0-10.67-4.77-10.69-10.65,0-2.46.84-4.86,2.39-6.77.1-.13.21-.25.33-.37L105.29,2.64c2.94-3.24,7.96-3.55,11.29-.67,2.34,2.03,3.33,5.28,2.5,8.27-.02.07-.04.14-.06.21l-9.91,31.06h35.93c5.86,0,10.65,4.77,10.67,10.65,0,2.45-.84,4.86-2.39,6.77-.1.13-.21.25-.33.37l-51.28,52.83c-1.59,1.75-3.79,2.64-5.99,2.64ZM93.54,104.77s0,0,0,0c0,0,0,0,0,0ZM108.4,76.54l-6.13,19.23,41.99-43.26h-35.6c-1.26,0-2.52-.23-3.72-.68-2.67-1-4.8-2.98-5.98-5.58-1.16-2.55-1.28-5.39-.34-8.03l6.13-19.23-41.99,43.26h35.56c1.25,0,2.54.22,3.76.68,5.47,2.05,8.28,8.12,6.33,13.6ZM98.34,73.26h0,0ZM145.02,52.51h0,0ZM108.68,41.51h0,0,0ZM113.47,9.99s0,0,0,0c0,0,0,0,0,0Z"/>
      </g>
    </g>
  </g>
</svg>