<?xml version="1.0" encoding="UTF-8"?>
<svg id="Layer_2" xmlns="http://www.w3.org/2000/svg" width="1211.16" height="237.53" viewBox="0 0 1211.16 237.53">
  <defs>
    <style>
      .cls-1 {
        fill: #131814;
      }
    </style>
  </defs>
  <g id="Layer_1-2" data-name="Layer_1">
    <g>
      <g>
        <path class="cls-1" d="M410.3,108.37c0,52.21-46.51,50.34-59.81,50.34h-32.23v39.2h-30.45V57.91h30.45v.12c7.43-.04,24.02-.12,32.32-.12,16.83,0,59.72.14,59.72,50.46ZM381.79,108.31c0-24.16-19.55-24.09-29.71-24.09h-33.82v48.22h33.35c8.09,0,30.18,1.17,30.18-24.13Z"/>
        <path class="cls-1" d="M517.85,102.11v-16.49h30.45v112.28h-30.45v-15.67h-.95c-7.6,9.76-20.4,15.67-41.49,15.67-47.09,0-52.4-41.02-52.4-56.14,0-16.36,5.01-56.14,52.48-56.14,20.75,0,33.46,6.54,41.08,16.49h1.28ZM515.94,141.76c0-15.2-5.38-29.97-31.65-29.97-29.15,0-32.23,21.23-32.23,29.97,0,8.07,3.26,29.97,32.18,29.97,26.33,0,31.7-12.98,31.7-29.97Z"/>
        <path class="cls-1" d="M642.26,132.56l47.24,65.34h-37.81l-31.53-43.61-21.85,21.49v21.79h-30.29V53.42h30.29v81.07l49.46-48.8h42.16l-47.66,46.87Z"/>
        <path class="cls-1" d="M801.89,148.85h-89.51c2.08,15,11.06,22.43,30.75,22.43,18.18,0,27.18-5.05,29.98-12.42h29.48c-3.12,24.09-22.6,39.05-59.46,39.05s-60.31-19.34-60.31-56.68,22.41-56.67,60.31-56.67c15.88,0,28.5,3.97,37.99,10.58v-.04c21.69,14.62,23.63,38.36,21.89,53.75h-1.12ZM713.54,128.74h59.24c-2.49-8.41-7.99-17.56-29.66-17.56-16.82,0-26.07,6.19-29.58,17.56Z"/>
        <path class="cls-1" d="M857.45,151.5h0v2.25c0,16.32,7.34,13.96,36.43,12.39v29.69s-5.98,2.08-36.43,2.08-30.45-25.02-30.45-41.33v-44.96h-14.98v-25.63h14.98v-32.41h30.46v32.41h36.43v25.63h-36.43v39.9Z"/>
        <path class="cls-1" d="M938.45,151.5h0v2.25c0,16.32,7.34,13.96,36.43,12.39v29.69s-5.98,2.08-36.43,2.08-30.45-25.02-30.45-41.33v-44.96h-14.98v-25.63h14.98v-32.41h30.46v32.41h36.43v25.63h-36.43v39.9Z"/>
        <path class="cls-1" d="M992.62,78.37v-27.1h30.29v27.1h-30.29ZM992.62,197.9v-111.55h30.29v111.55h-30.29Z"/>
        <path class="cls-1" d="M1043.41,78.37v-27.1h30.29v27.1h-30.29ZM1043.41,197.9v-111.55h30.29v111.55h-30.29Z"/>
        <path class="cls-1" d="M1211.16,141.79v56.12h-30.25v-56.11c0-8.73,1.88-29.95-27.25-29.95-26.26,0-30.22,16.75-30.22,31.95v54.11h-30.43v-112.21h30.43v16.46h1.43c7.25-9.89,17.49-16.47,37.58-16.47,47.44,0,48.7,39.75,48.71,56.11Z"/>
      </g>
      <g>
        <path class="cls-1" d="M101.42,237.53c-3.04,0-5.5-2.46-5.5-5.5v-86.49c0-3.04,2.46-5.5,5.5-5.5s5.5,2.46,5.5,5.5v86.49c0,3.04-2.46,5.5-5.5,5.5Z"/>
        <path class="cls-1" d="M62.99,170.32c-3.67,0-7.34-.94-10.62-2.81l-40.14-22.66c-5.6-3.17-9.62-8.32-11.34-14.51-1.72-6.19-.92-12.68,2.24-18.27,2.14-3.8,5.29-6.95,9.1-9.1l9.72-5.48c2.65-1.49,6-.55,7.49,2.09,1.49,2.65.55,6-2.09,7.49l-9.72,5.48c-2.06,1.16-3.76,2.86-4.92,4.92-1.72,3.05-2.16,6.57-1.22,9.92.93,3.36,3.12,6.16,6.16,7.87l40.16,22.67c3.21,1.83,7.15,1.83,10.33.01l107.38-60.48c2.65-1.49,6-.55,7.49,2.09,1.49,2.65.55,6-2.09,7.49l-107.35,60.46c-3.25,1.86-6.91,2.79-10.57,2.79Z"/>
        <path class="cls-1" d="M101.43,237.5c-3.81,0-7.62-.9-11.1-2.71l-57.64-29.59c-8.44-4.39-13.67-13-13.66-22.49v-37.19c0-3.04,2.46-5.5,5.5-5.5s5.5,2.46,5.5,5.5v37.19c0,5.37,2.95,10.23,7.7,12.71l57.64,29.59c3.79,1.97,8.29,1.97,12.06.01l57.69-29.61c4.73-2.46,7.68-7.33,7.68-12.69v-37.2c0-3.04,2.46-5.5,5.5-5.5s5.5,2.46,5.5,5.5v37.19c0,9.48-5.21,18.09-13.63,22.47l-57.69,29.61c-3.46,1.8-7.26,2.7-11.06,2.7Z"/>
        <path class="cls-1" d="M139.83,170.32c-3.66,0-7.32-.94-10.59-2.82L21.96,107.08c-1.72-.97-2.79-2.79-2.8-4.77,0-1.98,1.05-3.81,2.77-4.79l28.35-16.22c2.63-1.51,6-.59,7.5,2.04,1.51,2.64.59,6-2.04,7.51l-19.94,11.41,98.88,55.69c3.18,1.83,7.09,1.83,10.23.03l40.32-22.7c6.25-3.54,8.46-11.52,4.92-17.78-1.17-2.06-2.87-3.77-4.93-4.93l-9.65-5.45-22.57-11.94c-2.69-1.42-3.71-4.75-2.29-7.43,1.42-2.68,4.75-3.71,7.43-2.29l22.64,11.98s.09.05.13.07l9.71,5.49c3.79,2.14,6.94,5.29,9.1,9.09,6.52,11.53,2.44,26.23-9.09,32.77l-40.29,22.68c-3.23,1.86-6.87,2.79-10.52,2.79Z"/>
      </g>
      <path class="cls-1" d="M95.73,114.77c-1.88,0-3.77-.65-5.29-1.97-2.35-2.03-3.33-5.28-2.5-8.27.02-.07.04-.14.06-.21l9.91-31.06h-35.91c-5.88,0-10.67-4.77-10.69-10.65,0-2.46.84-4.86,2.39-6.77.1-.13.21-.25.33-.37L105.29,2.64c2.94-3.24,7.96-3.55,11.29-.67,2.34,2.03,3.33,5.28,2.5,8.27-.02.07-.04.14-.06.21l-9.91,31.06h35.93c5.86,0,10.65,4.77,10.67,10.65,0,2.45-.84,4.86-2.39,6.77-.1.13-.21.25-.33.37l-51.28,52.83c-1.59,1.75-3.79,2.64-5.99,2.64ZM93.54,104.77s0,0,0,0c0,0,0,0,0,0ZM108.4,76.54l-6.13,19.23,41.99-43.26h-35.56c-1.28,0-2.55-.22-3.76-.68-2.67-1-4.8-2.98-5.98-5.58-1.16-2.55-1.28-5.39-.34-8.03l6.13-19.23-41.99,43.26h35.56c1.22,0,2.54.22,3.76.68,5.47,2.05,8.28,8.12,6.33,13.6ZM98.34,73.26h0,0ZM145.02,52.51h0,0ZM108.68,41.51h0,0,0ZM113.47,9.99s0,0,0,0c0,0,0,0,0,0Z"/>
    </g>
  </g>
</svg>